<svg xmlns="http://www.w3.org/2000/svg" width="207.009" height="220.104" viewBox="0 0 207.009 220.104"><path d="M0,191.723C0,207.4,11.951,220.1,26.692,220.1H180.316c14.744,0,26.693-12.707,26.693-28.381V28.381C207.009,12.7,195.059,0,180.317,0H26.693C11.949,0,0,12.707,0,28.381V191.723Z" transform="translate(0)" fill="#563d7c"/><path d="M106.158,98.709V70.851h31.911a64.248,64.248,0,0,1,8.792.584,26.445,26.445,0,0,1,7.49,2.085,13.131,13.131,0,0,1,5.21,4.17,11.29,11.29,0,0,1,1.954,6.839q0,7.507-5.862,10.843t-14.979,3.336H106.158ZM72.075,50.5V169.6h75.112a101.928,101.928,0,0,0,20.3-2,63.077,63.077,0,0,0,17.584-6.172,34.655,34.655,0,0,0,12.265-10.759,26.723,26.723,0,0,0,4.559-15.6,27.727,27.727,0,0,0-7.055-19.1q-7.056-7.924-21.384-11.094,10.421-3.836,15.74-9.842a21.817,21.817,0,0,0,5.318-15.013q0-8.34-3.582-14.012a25.831,25.831,0,0,0-10.1-9.091A51.526,51.526,0,0,0,165.205,52a124.7,124.7,0,0,0-20.189-1.5Zm34.083,98.752v-32.7h37.121q11.071,0,17.8,3.92t6.73,13.095a13.264,13.264,0,0,1-2.063,7.673A14.473,14.473,0,0,1,160.212,146a27.792,27.792,0,0,1-8.032,2.5,58.861,58.861,0,0,1-9.552.75h-36.47Z" transform="translate(-27.983)" fill="#fff"/></svg>