<svg xmlns="http://www.w3.org/2000/svg" width="155.523" height="95.555" viewBox="0 0 155.523 95.555"><path d="M155.523,99.788c-5.657,1.523-9.156.067-12.3-4.926L120.9,62.148l-3.227-4.529L91.6,94.97c-2.979,4.493-6.1,6.449-11.664,4.859l33.389-47.465L82.238,9.489c5.346-1.1,9.04-.54,12.32,4.529l23.158,33.121L141.045,14.2c2.989-4.493,6.2-6.2,11.567-4.545L140.559,26.577,124.229,49.1c-1.944,2.573-1.677,4.334.112,6.82ZM.039,51.571,2.77,37.345C10.206,9.191,40.679-2.508,61.694,14.888,73.975,25.121,77.028,39.594,76.42,55.807H7.193c-1.04,29.183,18.794,46.8,44.081,37.81,8.87-3.155,14.094-10.51,16.709-19.713,1.327-4.612,3.524-5.332,7.616-4.015-2.09,11.509-6.8,21.123-16.767,27.14-14.886,9.007-36.135,6.094-47.313-6.423C4.86,83.343,2.109,74.14.875,64.3.68,62.673.292,61.124,0,59.564q.039-3.994.039-7.988Zm7.28-1.956H69.878C69.47,28.512,57.062,13.524,40.105,13.4,21.491,13.241,8.126,27.874,7.319,49.615Z" transform="translate(0 -6.711)"/></svg>