<svg xmlns="http://www.w3.org/2000/svg" width="171.014" height="174.919" viewBox="0 0 171.014 174.919"><path d="M126.047,30.358a2.191,2.191,0,0,1,.071.549v28.8a2.114,2.114,0,0,1-1.021,1.822l-23.39,13.919V103.04a2.119,2.119,0,0,1-1.016,1.822L51.866,133.912a2.144,2.144,0,0,1-.356.152c-.046.016-.089.045-.137.058a1.98,1.98,0,0,1-1.041,0,1.738,1.738,0,0,1-.16-.068,2.074,2.074,0,0,1-.335-.142L1.021,104.861A2.116,2.116,0,0,1,0,103.04V16.628a2.215,2.215,0,0,1,.071-.551c.015-.06.051-.116.071-.176a2.109,2.109,0,0,1,.13-.326,1.958,1.958,0,0,1,.14-.186,2.133,2.133,0,0,1,.18-.244,1.992,1.992,0,0,1,.2-.158,1.666,1.666,0,0,1,.224-.181h0L25.427.281a1.98,1.98,0,0,1,2.032,0L51.868,14.806h.005a2.5,2.5,0,0,1,.224.179,2.414,2.414,0,0,1,.2.158,2.449,2.449,0,0,1,.183.247,1.932,1.932,0,0,1,.137.186,2.233,2.233,0,0,1,.132.326c.02.06.056.116.071.179a2.191,2.191,0,0,1,.071.549V70.6l20.34-12.1V30.9a2.189,2.189,0,0,1,.071-.546c.018-.063.051-.118.071-.179a2.412,2.412,0,0,1,.132-.326c.038-.068.094-.123.137-.186a2.153,2.153,0,0,1,.183-.244,1.96,1.96,0,0,1,.2-.158,2.062,2.062,0,0,1,.224-.181h0L98.659,14.559a1.977,1.977,0,0,1,2.032,0L125.1,29.085a2.253,2.253,0,0,1,.229.179c.064.053.137.1.2.158a2.449,2.449,0,0,1,.183.247,1.582,1.582,0,0,1,.137.186,2.121,2.121,0,0,1,.132.326,1.53,1.53,0,0,1,.071.179Zm-4,28.137V34.542l-8.542,5.082-11.8,7.022V70.6l20.345-12.1ZM97.641,101.824V77.856L86.033,84.708,52.887,104.26v24.194ZM4.069,20.264v81.56l44.749,26.628V104.263L25.44,90.588l-.008-.005-.01-.005a95.544,95.544,0,0,0-.411-.326l-.005-.008a1.992,1.992,0,0,1-.168-.221,2.237,2.237,0,0,1-.152-.2l0-.008a1.706,1.706,0,0,1-.107-.263,1.582,1.582,0,0,1-.1-.236v0A2.074,2.074,0,0,1,24.439,89a1.879,1.879,0,0,1-.03-.236v-56.4l-11.8-7.025L4.069,20.266ZM26.446,4.528,6.109,16.628l20.332,12.1,20.335-12.1L26.441,4.528ZM37.022,80.04l11.8-7.02V20.264l-8.542,5.082-11.8,7.022V85.125ZM99.675,18.807,79.34,30.906l20.335,12.1,20.332-12.1Zm-2.034,27.84-11.8-7.022L77.3,34.542V58.495l11.8,7.02L97.641,70.6ZM50.85,100.624l29.827-17.6L95.586,74.23,75.266,62.139,51.871,76.06,30.548,88.748Z" transform="translate(56.712 0) rotate(25)" fill="#ff2d20"/></svg>