<svg xmlns="http://www.w3.org/2000/svg" xmlns:xlink="http://www.w3.org/1999/xlink" width="241.025" height="136.182" viewBox="0 0 241.025 136.182"><defs><clipPath id="a"><path d="M1.9,15.4c0,36.118,53.106,65.4,118.613,65.4s118.613-29.28,118.613-65.4S186.019-50,120.512-50,1.9-20.718,1.9,15.4" transform="translate(-1.899 49.999)"/></clipPath><radialGradient id="b" cx="0.628" cy="0.8" r="1.248" gradientTransform="translate(-0.009 0.511) scale(0.526 1)" gradientUnits="objectBoundingBox"><stop offset="0" stop-color="#aeb2d5"/><stop offset="0.3" stop-color="#aeb2d5"/><stop offset="0.75" stop-color="#484c89"/><stop offset="1" stop-color="#484c89"/></radialGradient><clipPath id="c"><path d="M0-52.692H241.025V83.49H0Z" transform="translate(0 52.692)"/></clipPath></defs><g transform="translate(0 52.692)"><g transform="translate(1.899 -49.999)" clip-path="url(#a)"><path d="M1.9,15.4c0,36.118,53.106,65.4,118.613,65.4s118.613-29.28,118.613-65.4S186.019-50,120.512-50,1.9-20.718,1.9,15.4" transform="translate(-1.899 49.999)" fill="url(#b)"/></g><g transform="translate(0 -52.692)" clip-path="url(#c)"><path d="M114.853,64.94c61.4,0,111.173-25.337,111.173-56.591S176.251-48.243,114.853-48.243,3.68-22.906,3.68,8.348,53.454,64.94,114.853,64.94" transform="translate(5.66 59.742)" fill="#777bb3"/></g><g transform="translate(0 -52.692)" clip-path="url(#c)"><path d="M43.418-1.986c5.049,0,8.817-.935,11.2-2.778,2.359-1.824,3.989-4.986,4.843-9.4.8-4.122.493-7-.9-8.553C57.136-24.3,54.053-25.1,49.4-25.1H41.332L36.859-1.986h6.558ZM17.029,26.49a1.252,1.252,0,0,1-.968-.459,1.265,1.265,0,0,1-.264-1.042L27.651-36.272a1.257,1.257,0,0,1,1.232-1.02H54.431c8.029,0,14.005,2.186,17.762,6.509,3.776,4.342,4.943,10.412,3.466,18.04a28.9,28.9,0,0,1-3.071,8.579,28.718,28.718,0,0,1-5.653,7.116,24.781,24.781,0,0,1-9.3,5.6A41.969,41.969,0,0,1,44.847,10.2H34.5L31.548,25.47a1.257,1.257,0,0,1-1.232,1.021H17.029Z" transform="translate(24.259 77.093)"/><path d="M43.128-23.069h7.033c5.616,0,7.567,1.238,8.23,1.975,1.1,1.225,1.307,3.807.6,7.468-.794,4.1-2.266,7-4.376,8.635-2.16,1.67-5.672,2.517-10.436,2.517H39.143l3.985-20.6ZM55.192-37.78H29.644a2.513,2.513,0,0,0-2.464,2.04L15.326,25.522a2.519,2.519,0,0,0,2.464,3H31.076a2.514,2.514,0,0,0,2.465-2.041L36.3,12.238h9.31A43.2,43.2,0,0,0,58.78,10.524a26.033,26.033,0,0,0,9.772-5.878,29.877,29.877,0,0,0,5.892-7.421,30.271,30.271,0,0,0,3.209-8.954c1.555-8.03.292-14.46-3.753-19.11-4.005-4.606-10.3-6.941-18.707-6.941M36.1.049h8.081q8.034,0,11.968-3.041t5.309-10.154q1.318-6.829-1.2-9.638T50.162-25.591h-9.1L36.1.048M55.193-35.258q11.528,0,16.817,6.078t3.179,16.97a27.515,27.515,0,0,1-2.935,8.2,27.323,27.323,0,0,1-5.407,6.8A23.458,23.458,0,0,1,58,8.126a40.554,40.554,0,0,1-12.394,1.59H34.228L31.078,26H17.792L29.644-35.258H55.192" transform="translate(23.499 76.32)" fill="#fff"/><path d="M71.849,20.188a1.251,1.251,0,0,1-.968-.459,1.264,1.264,0,0,1-.264-1.042L75.86-8.419c.5-2.578.376-4.428-.346-5.21-.442-.478-1.769-1.279-5.694-1.279h-9.5L53.728,19.168A1.257,1.257,0,0,1,52.5,20.188H39.315a1.259,1.259,0,0,1-1.232-1.5L49.937-42.574a1.257,1.257,0,0,1,1.232-1.02H64.35a1.253,1.253,0,0,1,.969.459,1.265,1.265,0,0,1,.264,1.043L62.722-27.307H72.941c7.785,0,13.064,1.379,16.139,4.215,3.138,2.893,4.112,7.519,2.907,13.753L86.472,19.168a1.257,1.257,0,0,1-1.232,1.021H71.85Z" transform="translate(58.531 67.108)"/><path d="M65.11-44.082H51.929a2.514,2.514,0,0,0-2.465,2.041L37.611,19.22a2.519,2.519,0,0,0,2.465,3H53.257a2.514,2.514,0,0,0,2.465-2.041l6.4-33.055h8.465c3.918,0,4.74.841,4.773.877.238.256.55,1.446.034,4.111L70.146,19.22a2.519,2.519,0,0,0,2.465,3H86a2.514,2.514,0,0,0,2.465-2.041L93.981-8.326c1.294-6.691.187-11.712-3.289-14.921C87.374-26.307,81.817-27.8,73.7-27.8h-8.7l2.571-13.284a2.53,2.53,0,0,0-.527-2.085,2.506,2.506,0,0,0-1.937-.918m0,2.522L61.961-25.273H73.7q11.083,0,15.29,3.883T91.517-8.807L86,19.7H72.612L77.855-7.4q.9-4.625-.659-6.308T70.583-15.4H60.047l-6.79,35.1H40.076L51.93-41.56H65.111" transform="translate(57.77 66.334)" fill="#fff"/><path d="M84.278-1.986c5.049,0,8.817-.935,11.2-2.778,2.359-1.824,3.989-4.985,4.843-9.4.8-4.122.493-7-.9-8.553C98-24.3,94.913-25.1,90.26-25.1H82.192L77.719-1.986h6.558ZM57.89,26.49a1.252,1.252,0,0,1-.968-.459,1.265,1.265,0,0,1-.264-1.042L68.511-36.272a1.257,1.257,0,0,1,1.233-1.02H95.291c8.03,0,14.005,2.186,17.762,6.509,3.776,4.342,4.942,10.411,3.466,18.04a28.913,28.913,0,0,1-3.072,8.579,28.719,28.719,0,0,1-5.653,7.116,24.781,24.781,0,0,1-9.3,5.6A41.969,41.969,0,0,1,85.707,10.2H75.361L72.408,25.47a1.257,1.257,0,0,1-1.233,1.021H57.889Z" transform="translate(87.097 77.093)"/><path d="M83.988-23.069h7.033c5.616,0,7.567,1.238,8.23,1.975,1.1,1.225,1.308,3.807.6,7.467-.794,4.1-2.267,7-4.376,8.636C93.315-3.32,89.8-2.474,85.039-2.474H80l3.984-20.6ZM96.051-37.78H70.5a2.514,2.514,0,0,0-2.464,2.04L56.186,25.522a2.519,2.519,0,0,0,2.464,3H71.936A2.514,2.514,0,0,0,74.4,26.484l2.756-14.246h9.31A43.2,43.2,0,0,0,99.64,10.524a26.034,26.034,0,0,0,9.773-5.879A29.95,29.95,0,0,0,115.3-2.775a30.154,30.154,0,0,0,3.209-8.954c1.555-8.03.292-14.46-3.753-19.11-4.005-4.605-10.3-6.941-18.707-6.941M76.958.049h8.081q8.034,0,11.968-3.041t5.309-10.154q1.319-6.829-1.2-9.638T91.022-25.591h-9.1L76.958.048M96.053-35.258q11.528,0,16.817,6.078t3.179,16.97a27.515,27.515,0,0,1-2.935,8.2,27.323,27.323,0,0,1-5.407,6.8,23.457,23.457,0,0,1-8.843,5.33,40.554,40.554,0,0,1-12.394,1.59H75.088L71.937,26H58.652L70.505-35.258H96.053" transform="translate(86.337 76.32)" fill="#fff"/></g></g></svg>