<svg xmlns="http://www.w3.org/2000/svg" width="245.75" height="159.808" viewBox="0 0 245.75 159.808"><path d="M201.709,80.579a58.643,58.643,0,0,0-21.249,3.938c-2.2-3.464-4.4-6.49-4.762-8.75-.412-2.625-.916-4.229-.412-7.365s2.793-7.584,2.793-7.948c-.046-.328-.5-1.932-5.221-1.969s-8.793.729-9.251,1.714a35.552,35.552,0,0,0-1.969,5.578C160.814,69.2,152.2,81.345,147.3,87.725c-1.6-2.479-2.977-4.667-3.252-6.417-.412-2.625-.916-4.229-.412-7.364s2.793-7.583,2.793-7.948c-.046-.328-.5-1.932-5.22-1.969s-8.793.729-9.251,1.714-.962,3.318-1.969,5.578c-.962,2.26-12.411,22.531-15.388,27.817-1.511,2.7-2.839,4.849-3.8,6.307s-.046.109-.137.255c-.824,1.24-1.282,1.932-1.282,1.932v.037c-.641.911-1.328,1.786-1.649,1.786-.229,0-.687-2.443.092-5.8,1.694-7.037,5.816-18.01,5.771-18.411,0-.182.778-2.115-2.657-3.1-3.343-.984-4.533.656-4.808.656s-.5.583-.5.583,3.709-12.359-7.1-12.359c-6.778,0-16.12,5.87-20.745,11.229-2.931,1.276-9.159,3.974-15.753,6.854-2.519,1.094-5.129,2.26-7.6,3.318l-.5-.438C40.832,80.871,16.607,73,17.614,58.048c.366-5.432,2.748-19.76,46.528-37.114C100,6.715,128.713,10.616,133.7,19.293c7.1,12.4-15.341,35.437-52.618,38.755-14.2,1.276-21.661-3.1-23.538-4.74C55.578,51.6,55.3,51.522,54.571,51.85c-1.191.51-.458,2.042,0,2.953,1.1,2.3,5.679,6.38,13.464,8.422C74.857,65.012,91.527,66,111.677,59.8c22.577-6.963,40.208-26.286,35.033-42.437C141.444.919,107.189-4.477,74.812,4.674c-19.28,5.469-40.162,14-55.183,25.192C1.769,43.137-1.07,54.73.12,59.543c4.168,17.172,33.888,28.364,45.795,36.64-.6.255-1.145.51-1.649.729-5.953,2.333-28.622,11.776-34.3,21.765-6.411,11.3,1.007,19.432,5.953,20.526,15.3,3.391,30.957-2.7,39.429-12.724,8.426-10.026,7.419-23.041,3.526-28.984l-.138-.219,4.671-2.187c3.023-1.422,6-2.734,8.609-3.865a37.476,37.476,0,0,0-3.068,12.4c-.641,6.417,2.656,14.729,7.007,18.01a9.162,9.162,0,0,0,5.633,1.458c5.037,0,7.327-3.318,9.846-7.292,3.114-4.849,5.862-10.463,5.862-10.463s-3.435,15.2,5.953,15.2c3.435,0,6.869-3.536,8.426-5.359v.036s.092-.109.275-.365q.288-.339.55-.692v-.073c1.374-1.9,4.442-6.234,9.022-13.417,5.907-9.26,11.586-20.854,11.586-20.854a55.291,55.291,0,0,0,2.244,7.51c1.007,2.771,3.205,5.8,4.9,8.75-1.374,1.531-2.2,2.407-2.2,2.407l.046.036c-1.1,1.167-2.336,2.407-3.617,3.646-4.671,4.448-10.258,9.516-10.991,10.974-.87,1.713-.687,2.989,1.007,4.01,1.236.729,3.435.875,5.77.729a31.228,31.228,0,0,0,8.609-1.568,33.1,33.1,0,0,0,7.419-3.1c4.579-2.7,7.373-6.526,7.1-11.63a19.733,19.733,0,0,0-2.7-8.2c.412-.474.825-.948,1.236-1.458a149.223,149.223,0,0,0,12.823-17.682A55.289,55.289,0,0,0,167,81.747a47.982,47.982,0,0,0,4.167,7.511c-6.778,4.411-11.037,9.516-12.5,12.87-2.7,6.2-.6,9.005,3.389,9.661,1.786.292,4.35-.365,6.273-1.021a31.682,31.682,0,0,0,7.923-3.245c4.579-2.7,8.976-6.453,8.747-11.521a18.408,18.408,0,0,0-1.969-6.818c5.77-1.9,13.234-2.99,22.714-2.078,20.379,1.9,24.409,12.031,23.631,16.26s-5.037,6.562-6.458,7.292c-1.42.693-1.878.948-1.74,1.458.183.766.824.729,2.061.584,1.694-.219,10.716-3.464,11.082-11.265.55-10.027-11.4-20.965-32.606-20.856ZM44.541,122.761c-6.732,5.87-16.211,8.094-20.241,6.2-4.351-2.005-2.657-10.646,5.633-16.88a109.731,109.731,0,0,1,15.891-9.443c.962-.474,2.427-1.166,4.167-2.005.275-.145.458-.219.458-.219.321-.146.687-.328,1.053-.51,3.068,8.9.137,16.7-6.961,22.859ZM93.771,96.11c-2.336,4.557-7.281,16.26-10.258,15.6-2.565-.547-4.122-9.406-.5-18.156a39.077,39.077,0,0,1,8.014-11.7c3.71-3.281,7.739-4.375,8.747-3.026C100.961,80.579,95.236,93.267,93.771,96.11Zm40.62,15.458c-1.007.4-1.923.693-2.336.474-.321-.146.412-.693.412-.693s5.083-4.338,7.1-6.344c1.145-1.166,2.519-2.515,3.984-4.047v.438c0,5.25-6.319,8.75-9.158,10.171Zm31.323-5.687c-.733-.437-.641-1.786,1.832-6.016a23.9,23.9,0,0,1,6.961-7.146,7.389,7.389,0,0,1,.687,3.135C175.148,102.418,169.286,104.86,165.714,105.881Z" transform="matrix(0.996, 0.087, -0.087, 0.996, 12.33, -0.23)" fill="#cf649a"/></svg>