<svg xmlns="http://www.w3.org/2000/svg" width="215.065" height="224.849" viewBox="0 0 215.065 224.849"><path d="M0,112.424V0H215.065V224.849H0" fill="#007acc"/><path d="M87.7,192.309v8.975h27.016v81.492h19.171V201.284H160.9v-8.81c0-4.956,0-8.975-.208-9.085,0-.165-16.469-.22-36.471-.22l-36.367.165v9.03Zm121.414-9.2a24.859,24.859,0,0,1,12.988,7.874c1.922,2.2,4.78,6.057,4.987,7.048,0,.33-8.988,6.773-14.443,10.352-.208.165-1.039-.771-1.87-2.2-2.7-4.075-5.455-5.837-9.767-6.167-6.234-.44-10.391,3.028-10.391,8.81a9.125,9.125,0,0,0,.935,4.185c1.4,3.028,4,4.845,12.053,8.59,14.859,6.773,21.3,11.233,25.2,17.62,4.416,7.158,5.4,18.391,2.442,26.815-3.325,9.2-11.43,15.417-23.015,17.455a61.179,61.179,0,0,1-15.846-.165c-8.312-1.652-16.261-6.057-21.145-11.728-1.922-2.2-5.611-8.094-5.4-8.48l1.974-1.321,7.793-4.79,5.871-3.634,1.351,1.927a29.1,29.1,0,0,0,7.793,8.039c6.754,3.689,15.794,3.194,20.262-1.1a8.478,8.478,0,0,0,2.754-6.608,8.859,8.859,0,0,0-1.559-5.616c-1.662-2.423-4.987-4.4-14.339-8.81-10.754-4.845-15.326-7.929-19.586-12.664a31.87,31.87,0,0,1-5.715-11.012c-.779-3.194-1.039-11.012-.312-14.151,2.234-11.012,10.079-18.721,21.3-20.924,3.637-.771,12.209-.441,15.794.551l-.1.11Z" transform="translate(-39.466 -84.977)" fill="#fff"/></svg>